<svg width="800" height="800" viewBox="0 0 800 800" fill="none" xmlns="http://www.w3.org/2000/svg">
  <path d="M400 50C212.1 50 60 202.1 60 390C60 577.9 212.1 730 400 730C587.9 730 740 577.9 740 390C740 202.1 587.9 50 400 50Z" fill="#111111" stroke="#4ADE80" stroke-width="2"/>
  <path d="M400 150C267.5 150 160 257.5 160 390C160 522.5 267.5 630 400 630C532.5 630 640 522.5 640 390C640 257.5 532.5 150 400 150Z" fill="#111111" stroke="#4ADE80" stroke-width="2"/>
  <path d="M400 250C322.9 250 260 312.9 260 390C260 467.1 322.9 530 400 530C477.1 530 540 467.1 540 390C540 312.9 477.1 250 400 250Z" fill="#111111" stroke="#4ADE80" stroke-width="2"/>
  <path d="M400 350C378.3 350 360 368.3 360 390C360 411.7 378.3 430 400 430C421.7 430 440 411.7 440 390C440 368.3 421.7 350 400 350Z" fill="#4ADE80"/>
  <path d="M300 200L320 220M480 200L460 220M300 580L320 560M480 580L460 560" stroke="#4ADE80" stroke-width="2"/>
  <path d="M200 300L220 320M600 300L580 320M200 480L220 460M600 480L580 460" stroke="#4ADE80" stroke-width="2"/>
  <path d="M250 250L270 270M550 250L530 270M250 530L270 510M550 530L530 510" stroke="#4ADE80" stroke-width="2"/>
  <path d="M400 150V170M400 610V630M150 390H170M630 390H650" stroke="#4ADE80" stroke-width="2"/>
  <path d="M400 50V70M400 710V730M50 390H70M730 390H750" stroke="#4ADE80" stroke-width="2"/>
  <path d="M300 100L310 120M500 100L490 120M300 680L310 660M500 680L490 660" stroke="#4ADE80" stroke-width="2"/>
  <path d="M100 300L120 310M700 300L680 310M100 480L120 470M700 480L680 470" stroke="#4ADE80" stroke-width="2"/>
  <path d="M180 180L200 200M620 180L600 200M180 600L200 580M620 600L600 580" stroke="#4ADE80" stroke-width="2"/>
  <path d="M350 390C350 362.4 372.4 340 400 340C427.6 340 450 362.4 450 390C450 417.6 427.6 440 400 440C372.4 440 350 417.6 350 390Z" stroke="#EAB308" stroke-width="2"/>
  <path d="M320 390C320 345.8 355.8 310 400 310C444.2 310 480 345.8 480 390C480 434.2 444.2 470 400 470C355.8 470 320 434.2 320 390Z" stroke="#EAB308" stroke-width="2"/>
  <path d="M290 390C290 329.2 339.2 280 400 280C460.8 280 510 329.2 510 390C510 450.8 460.8 500 400 500C339.2 500 290 450.8 290 390Z" stroke="#EAB308" stroke-width="2"/>
</svg>
